<svg width="59" height="43" viewBox="0 0 59 43" fill="none" xmlns="http://www.w3.org/2000/svg">
<path d="M12.6873 12.7344H53.074C55.4237 12.7345 57.3289 14.6395 57.3289 16.9893V36.4795C57.3289 38.8293 55.4237 40.7342 53.074 40.7344H12.6873C10.3374 40.7344 8.43237 38.8294 8.43237 36.4795V16.9893C8.43237 14.6394 10.3374 12.7344 12.6873 12.7344Z" fill="#14151E" stroke="#F5FFF1" stroke-width="3.34306"/>
<path d="M1.51524 18.1039C0.678396 14.9396 2.56512 11.6961 5.72936 10.8593L41.0604 1.51528C44.2246 0.678436 47.4682 2.56516 48.305 5.7294L53.3558 24.8273C54.1926 27.9915 52.3059 31.235 49.1417 32.0719L13.8106 41.4158C10.6464 42.2527 7.40289 40.366 6.56605 37.2017L1.51524 18.1039Z" fill="#14151E"/>
<path d="M48.2871 28.8399L49.1419 32.0718L13.8105 41.4159L12.9557 38.184L48.2871 28.8399ZM50.124 25.6822L45.0731 6.58395C44.7082 5.20482 43.2945 4.38246 41.9153 4.74711L6.58392 14.0912C5.20479 14.456 4.38242 15.8698 4.74708 17.249L9.79798 36.3472C10.1628 37.7263 11.5766 38.5487 12.9557 38.184L13.8105 41.4159L13.5137 41.4863C10.545 42.1125 7.57493 40.3848 6.65159 37.4947L6.56609 37.2019L1.51519 18.1037C0.678474 14.9396 2.56511 11.6962 5.72919 10.8593L41.0606 1.51524L41.3573 1.44483C44.425 0.797738 47.4942 2.664 48.3049 5.72922L53.3558 24.8274L53.4263 25.1242C54.0524 28.0929 52.3248 31.063 49.4346 31.9863L49.1419 32.0718L48.2871 28.8399C49.6662 28.4751 50.4886 27.0613 50.124 25.6822Z" fill="#F5FFF1"/>
<path d="M19.4211 37.2412L16.1892 38.0959L9.27813 11.9641L12.51 11.1094L19.4211 37.2412Z" fill="#F5FFF1"/>
<path d="M22.5847 15.5967L25.7934 27.7293L14.7841 30.6409L11.5754 18.5083L22.5847 15.5967ZM17.1613 26.5543L21.7068 25.3521L20.2076 19.6833L15.6621 20.8854L17.1613 26.5543Z" fill="#F5FFF1"/>
<path d="M33.6107 19.3194C33.959 20.6366 33.1514 21.9928 31.8067 22.3484C30.462 22.704 29.0895 21.9245 28.7411 20.6072C28.3928 19.29 29.2004 17.9339 30.5451 17.5782C31.8898 17.2226 33.2623 18.0022 33.6107 19.3194Z" fill="#98D523"/>
</svg>
