<svg width="96" height="70" viewBox="0 0 96 70" fill="none" xmlns="http://www.w3.org/2000/svg">
<path d="M20.6426 20.7197H86.3574C90.1807 20.7199 93.2801 23.8193 93.2803 27.6426V59.3574C93.2801 63.1807 90.1807 66.2801 86.3574 66.2803H20.6426C16.8193 66.2801 13.7199 63.1807 13.7197 59.3574V27.6426C13.7199 23.8193 16.8193 20.7199 20.6426 20.7197Z" fill="#14151E" stroke="#4A6712" stroke-width="5.43956"/>
<path d="M2.46548 29.4571C1.10383 24.3085 4.17376 19.0309 9.32234 17.6693L66.8101 2.46551C71.9587 1.10386 77.2363 4.17379 78.598 9.32238L86.8162 40.3969C88.1779 45.5455 85.1079 50.823 79.9593 52.1847L22.4716 67.3885C17.323 68.7501 12.0454 65.6802 10.6837 60.5316L2.46548 29.4571Z" fill="#14151E"/>
<path d="M78.5689 46.926L79.9596 52.1846L22.4713 67.3885L21.0805 62.1299L78.5689 46.926ZM81.5576 41.7879L73.3392 10.7128C72.7456 8.46883 70.4452 7.13074 68.2012 7.72408L10.7128 22.928C8.46882 23.5216 7.13072 25.822 7.72405 28.0661L15.9425 59.1411C16.5362 61.3851 18.8365 62.7232 21.0805 62.1299L22.4713 67.3885L21.9884 67.5031C17.1579 68.522 12.3253 65.7109 10.8229 61.0082L10.6838 60.5319L2.4654 29.4568C1.10396 24.3084 4.17374 19.0311 9.32208 17.6694L66.8104 2.46544L67.2933 2.35087C72.2848 1.29798 77.2787 4.33461 78.5979 9.32208L86.8163 40.3972L86.9309 40.88C87.9497 45.7105 85.1387 50.5432 80.436 52.0455L79.9596 52.1846L78.5689 46.926C80.8128 46.3324 82.1509 44.0319 81.5576 41.7879Z" fill="#758B4B"/>
<path d="M31.6006 60.5957L26.342 61.9865L15.0968 19.4669L20.3555 18.0762L31.6006 60.5957Z" fill="#758B4B"/>
<path d="M36.7479 25.3777L41.9688 45.1189L24.0554 49.8564L18.8345 30.1152L36.7479 25.3777ZM27.9233 43.207L35.3194 41.251L32.88 32.0271L25.4839 33.9831L27.9233 43.207Z" fill="#758B4B"/>
<path d="M54.6884 31.4352C55.2553 33.5785 53.9411 35.7851 51.7531 36.3638C49.5652 36.9424 47.332 35.674 46.7651 33.5307C46.1983 31.3874 47.5125 29.1808 49.7004 28.6022C51.8884 28.0235 54.1216 29.2919 54.6884 31.4352Z" fill="#758B4B"/>
</svg>
