<svg width="96" height="90" viewBox="0 0 96 90" fill="none" xmlns="http://www.w3.org/2000/svg">
<path d="M20.6426 20.7197H86.3574C90.1807 20.7199 93.2801 23.8193 93.2803 27.6426V59.3574C93.2801 63.1807 90.1807 66.2801 86.3574 66.2803H20.6426C16.8193 66.2801 13.7199 63.1807 13.7197 59.3574V27.6426C13.7199 23.8193 16.8193 20.7199 20.6426 20.7197Z" fill="#14151E" stroke="#F5FFF1" stroke-width="5.43956"/>
<path d="M2.46548 29.4571C1.10383 24.3085 4.17376 19.0309 9.32234 17.6693L66.8101 2.46551C71.9587 1.10386 77.2363 4.17379 78.598 9.32238L86.8162 40.3969C88.1779 45.5455 85.1079 50.823 79.9593 52.1847L22.4716 67.3885C17.323 68.7501 12.0454 65.6802 10.6837 60.5316L2.46548 29.4571Z" fill="#14151E"/>
<path d="M78.5689 46.926L79.9596 52.1846L22.4713 67.3885L21.0805 62.1299L78.5689 46.926ZM81.5576 41.7879L73.3392 10.7128C72.7456 8.46883 70.4452 7.13074 68.2012 7.72408L10.7128 22.928C8.46882 23.5216 7.13072 25.822 7.72405 28.0661L15.9425 59.1411C16.5362 61.3851 18.8365 62.7232 21.0805 62.1299L22.4713 67.3885L21.9884 67.5031C17.1579 68.522 12.3253 65.7109 10.8229 61.0082L10.6838 60.5319L2.4654 29.4568C1.10396 24.3084 4.17374 19.0311 9.32208 17.6694L66.8104 2.46544L67.2933 2.35087C72.2848 1.29798 77.2787 4.33461 78.5979 9.32208L86.8163 40.3972L86.9309 40.88C87.9497 45.7105 85.1387 50.5432 80.436 52.0455L79.9596 52.1846L78.5689 46.926C80.8128 46.3324 82.1509 44.0319 81.5576 41.7879Z" fill="#F5FFF1"/>
<path d="M31.6006 60.5957L26.342 61.9865L15.0968 19.4669L20.3555 18.0762L31.6006 60.5957Z" fill="#F5FFF1"/>
<path d="M36.7479 25.3777L41.9688 45.1189L24.0554 49.8564L18.8345 30.1152L36.7479 25.3777ZM27.9233 43.207L35.3194 41.251L32.88 32.0271L25.4839 33.9831L27.9233 43.207Z" fill="#F5FFF1"/>
<path d="M54.6884 31.4352C55.2553 33.5785 53.9411 35.7851 51.7531 36.3638C49.5652 36.9424 47.332 35.674 46.7651 33.5307C46.1983 31.3874 47.5125 29.1808 49.7004 28.6022C51.8884 28.0235 54.1216 29.2919 54.6884 31.4352Z" fill="#98D523"/>
<path d="M76.9548 87.083C76.3033 87.083 75.7248 86.9458 75.219 86.6715C74.7219 86.3887 74.3319 86.0115 74.049 85.5401C73.7662 85.0601 73.6248 84.5158 73.6248 83.9072C73.6248 83.5987 73.6548 83.2901 73.7148 82.9815C73.7833 82.673 73.9033 82.343 74.0748 81.9915C74.2548 81.6401 74.5119 81.2501 74.8462 80.8215L77.5205 77.3501H79.6033L76.3505 81.5287L76.0676 81.2201C76.1876 81.1258 76.3119 81.053 76.4405 81.0015C76.569 80.9415 76.6976 80.8987 76.8262 80.873C76.9633 80.8472 77.1048 80.8344 77.2505 80.8344C77.8333 80.8344 78.3519 80.9672 78.8062 81.233C79.2605 81.4987 79.6162 81.863 79.8733 82.3258C80.139 82.7801 80.2719 83.2944 80.2719 83.8687C80.2719 84.4858 80.1305 85.0387 79.8476 85.5272C79.5648 86.0072 79.1705 86.3887 78.6648 86.6715C78.1676 86.9458 77.5976 87.083 76.9548 87.083ZM76.9548 85.5015C77.2462 85.5015 77.5076 85.4372 77.739 85.3087C77.979 85.1715 78.1676 84.9787 78.3048 84.7301C78.4505 84.4815 78.5233 84.203 78.5233 83.8944C78.5233 83.5687 78.4505 83.2901 78.3048 83.0587C78.1676 82.8187 77.9833 82.6301 77.7519 82.493C77.5205 82.3558 77.2548 82.2872 76.9548 82.2872C76.6633 82.2872 76.3976 82.3558 76.1576 82.493C75.9176 82.6301 75.7248 82.8187 75.579 83.0587C75.4419 83.2901 75.3733 83.5687 75.3733 83.8944C75.3733 84.203 75.4419 84.4815 75.579 84.7301C75.7248 84.9787 75.9176 85.1715 76.1576 85.3087C76.3976 85.4372 76.6633 85.5015 76.9548 85.5015Z" fill="#98D523"/>
<path d="M65.9915 86.9287V85.6044L68.5887 82.8915C69.103 82.3515 69.4972 81.9229 69.7715 81.6058C70.0544 81.2801 70.2515 81.0015 70.363 80.7701C70.4744 80.5387 70.5301 80.3029 70.5301 80.0629C70.5301 79.6601 70.4015 79.3429 70.1444 79.1115C69.8958 78.8801 69.5744 78.7644 69.1801 78.7644C68.7687 78.7644 68.413 78.8844 68.113 79.1244C67.813 79.3558 67.5944 79.6987 67.4572 80.1529L65.9272 79.6772C66.0301 79.1715 66.2401 78.7344 66.5572 78.3658C66.8744 77.9887 67.2601 77.7015 67.7144 77.5044C68.1772 77.2987 68.6658 77.1958 69.1801 77.1958C69.7972 77.1958 70.3372 77.3072 70.8001 77.5301C71.2715 77.7529 71.6358 78.0658 71.893 78.4687C72.1587 78.8715 72.2915 79.3429 72.2915 79.8829C72.2915 80.2258 72.2272 80.5644 72.0987 80.8987C71.9701 81.2329 71.7772 81.5758 71.5201 81.9272C71.263 82.2701 70.9287 82.6558 70.5172 83.0844L68.2672 85.4501H72.4201V86.9287H65.9915Z" fill="#98D523"/>
<path d="M64.0621 87.0056C63.2735 87.0056 62.6606 86.7913 62.2235 86.3627C61.7949 85.9256 61.5806 85.3127 61.5806 84.5241V81.4384H60.3721V79.9341H60.5006C60.8435 79.9341 61.1092 79.8441 61.2978 79.6641C61.4864 79.4841 61.5806 79.2227 61.5806 78.8798V78.3398H63.2649V79.9341H64.8721V81.4384H63.2649V84.4341C63.2649 84.6656 63.3035 84.8627 63.3806 85.0256C63.4664 85.1884 63.5949 85.3127 63.7664 85.3984C63.9464 85.4841 64.1735 85.527 64.4478 85.527C64.5078 85.527 64.5764 85.5227 64.6535 85.5141C64.7392 85.5056 64.8206 85.497 64.8978 85.4884V86.9284C64.7778 86.9456 64.6406 86.9627 64.4864 86.9798C64.3321 86.997 64.1906 87.0056 64.0621 87.0056Z" fill="#F5FFF1"/>
<path d="M56.318 87.0826C55.598 87.0826 54.968 86.9198 54.428 86.5941C53.888 86.2684 53.468 85.8269 53.168 85.2698C52.868 84.7126 52.718 84.0955 52.718 83.4184C52.718 82.7155 52.868 82.0941 53.168 81.5541C53.4766 81.0055 53.8923 80.5726 54.4152 80.2555C54.9466 79.9384 55.538 79.7798 56.1894 79.7798C56.738 79.7798 57.218 79.8698 57.6294 80.0498C58.0494 80.2298 58.4052 80.4784 58.6966 80.7955C58.988 81.1126 59.2109 81.4769 59.3652 81.8884C59.5194 82.2912 59.5966 82.7284 59.5966 83.1998C59.5966 83.3198 59.588 83.4441 59.5709 83.5726C59.5623 83.7012 59.5409 83.8126 59.5066 83.9069H54.1066V82.6212H58.5552L57.758 83.2255C57.8352 82.8312 57.8137 82.4798 57.6937 82.1712C57.5823 81.8626 57.3937 81.6184 57.128 81.4384C56.8709 81.2584 56.558 81.1684 56.1894 81.1684C55.838 81.1684 55.5252 81.2584 55.2509 81.4384C54.9766 81.6098 54.7666 81.8669 54.6209 82.2098C54.4837 82.5441 54.4323 82.9512 54.4666 83.4312C54.4323 83.8598 54.488 84.2412 54.6337 84.5755C54.788 84.9012 55.0109 85.1541 55.3023 85.3341C55.6023 85.5141 55.9452 85.6041 56.3309 85.6041C56.7166 85.6041 57.0423 85.5226 57.308 85.3598C57.5823 85.1969 57.7966 84.9784 57.9509 84.7041L59.3137 85.3726C59.1766 85.7069 58.9623 86.0026 58.6709 86.2598C58.3794 86.5169 58.0323 86.7184 57.6294 86.8641C57.2352 87.0098 56.798 87.0826 56.318 87.0826Z" fill="#F5FFF1"/>
<path d="M45.7061 86.9287V77.1958H47.3903V83.5729L46.7475 83.3801L50.0389 79.9344H52.1346L49.5503 82.7501L52.1861 86.9287H50.2575L47.9689 83.3029L48.9718 83.0972L46.8632 85.3601L47.3903 84.3315V86.9287H45.7061Z" fill="#F5FFF1"/>
<path d="M41.2523 87.0826C40.558 87.0826 39.9323 86.9241 39.3751 86.6069C38.8265 86.2812 38.3937 85.8441 38.0765 85.2955C37.7594 84.7384 37.6008 84.1126 37.6008 83.4184C37.6008 82.7241 37.7594 82.1026 38.0765 81.5541C38.3937 81.0055 38.8265 80.5726 39.3751 80.2555C39.9323 79.9384 40.558 79.7798 41.2523 79.7798C41.7494 79.7798 42.2123 79.8698 42.6408 80.0498C43.0694 80.2212 43.438 80.4612 43.7465 80.7698C44.0637 81.0698 44.2908 81.4298 44.428 81.8498L42.9494 82.4926C42.8208 82.1412 42.6023 81.8584 42.2937 81.6441C41.9937 81.4298 41.6465 81.3226 41.2523 81.3226C40.8837 81.3226 40.5537 81.4126 40.2623 81.5926C39.9794 81.7726 39.7565 82.0212 39.5937 82.3384C39.4308 82.6555 39.3494 83.0198 39.3494 83.4312C39.3494 83.8426 39.4308 84.2069 39.5937 84.5241C39.7565 84.8412 39.9794 85.0898 40.2623 85.2698C40.5537 85.4498 40.8837 85.5398 41.2523 85.5398C41.6551 85.5398 42.0065 85.4326 42.3065 85.2184C42.6065 85.0041 42.8208 84.7169 42.9494 84.3569L44.428 85.0255C44.2908 85.4198 44.068 85.7755 43.7594 86.0926C43.4508 86.4012 43.0823 86.6455 42.6537 86.8255C42.2251 86.9969 41.758 87.0826 41.2523 87.0826Z" fill="#F5FFF1"/>
<path d="M32.5471 87.0826C32.0585 87.0826 31.6343 87.0012 31.2743 86.8384C30.9143 86.6755 30.6357 86.4441 30.4385 86.1441C30.2414 85.8355 30.1428 85.4798 30.1428 85.0769C30.1428 84.6912 30.2285 84.3484 30.4 84.0484C30.5714 83.7398 30.8371 83.4826 31.1971 83.2769C31.5571 83.0712 32.0114 82.9255 32.56 82.8398L34.8485 82.4669V83.7526L32.8814 84.0869C32.5471 84.1469 32.2985 84.2541 32.1357 84.4084C31.9728 84.5626 31.8914 84.7641 31.8914 85.0126C31.8914 85.2526 31.9814 85.4455 32.1614 85.5912C32.35 85.7284 32.5814 85.7969 32.8557 85.7969C33.2071 85.7969 33.5157 85.7241 33.7814 85.5784C34.0557 85.4241 34.2657 85.2141 34.4114 84.9484C34.5657 84.6826 34.6428 84.3912 34.6428 84.0741V82.2741C34.6428 81.9741 34.5228 81.7255 34.2828 81.5284C34.0514 81.3226 33.7428 81.2198 33.3571 81.2198C32.9971 81.2198 32.6757 81.3184 32.3928 81.5155C32.1185 81.7041 31.9171 81.9569 31.7885 82.2741L30.4128 81.6055C30.55 81.2369 30.7643 80.9198 31.0557 80.6541C31.3557 80.3798 31.7071 80.1655 32.11 80.0112C32.5128 79.8569 32.95 79.7798 33.4214 79.7798C33.9957 79.7798 34.5014 79.8869 34.9385 80.1012C35.3757 80.3069 35.7143 80.5984 35.9543 80.9755C36.2028 81.3441 36.3271 81.7769 36.3271 82.2741V86.9284H34.7328V85.7326L35.0928 85.7069C34.9128 86.0069 34.6985 86.2598 34.45 86.4655C34.2014 86.6626 33.9185 86.8169 33.6014 86.9284C33.2843 87.0312 32.9328 87.0826 32.5471 87.0826Z" fill="#F5FFF1"/>
<path d="M25.6167 86.9284V79.9341H27.1981V81.4898L27.0696 81.2584C27.2324 80.7355 27.4853 80.3712 27.8281 80.1655C28.1796 79.9598 28.5996 79.8569 29.0881 79.8569H29.4996V81.3484H28.8953C28.4153 81.3484 28.0296 81.4984 27.7381 81.7984C27.4467 82.0898 27.301 82.5012 27.301 83.0326V86.9284H25.6167Z" fill="#F5FFF1"/>
<path d="M20.7968 87.0829C20.2911 87.0829 19.824 86.9844 19.3954 86.7872C18.9754 86.5815 18.6411 86.2901 18.3926 85.9129L18.5597 85.5787V86.9287H16.9783V77.1958H18.6626V81.3229L18.4054 80.9758C18.6454 80.5987 18.9711 80.3072 19.3826 80.1015C19.794 79.8872 20.2697 79.7801 20.8097 79.7801C21.4697 79.7801 22.0654 79.9429 22.5968 80.2687C23.1283 80.5944 23.5483 81.0315 23.8568 81.5801C24.174 82.1287 24.3326 82.7458 24.3326 83.4315C24.3326 84.1087 24.1783 84.7258 23.8697 85.2829C23.5611 85.8401 23.1411 86.2815 22.6097 86.6072C22.0783 86.9244 21.474 87.0829 20.7968 87.0829ZM20.604 85.5401C20.9897 85.5401 21.3326 85.4501 21.6326 85.2701C21.9326 85.0901 22.164 84.8415 22.3268 84.5244C22.4983 84.2072 22.584 83.8429 22.584 83.4315C22.584 83.0201 22.4983 82.6601 22.3268 82.3515C22.164 82.0344 21.9326 81.7858 21.6326 81.6058C21.3326 81.4172 20.9897 81.3229 20.604 81.3229C20.2354 81.3229 19.9011 81.4129 19.6011 81.5929C19.3097 81.7729 19.0783 82.0258 18.9068 82.3515C18.744 82.6687 18.6626 83.0287 18.6626 83.4315C18.6626 83.8429 18.744 84.2072 18.9068 84.5244C19.0783 84.8415 19.3097 85.0901 19.6011 85.2701C19.9011 85.4501 20.2354 85.5401 20.604 85.5401Z" fill="#F5FFF1"/>
</svg>
