<svg width="96" height="100" viewBox="0 0 96 100" fill="none" xmlns="http://www.w3.org/2000/svg">
<path d="M20.6426 20.7197H86.3574C90.1807 20.7199 93.2801 23.8193 93.2803 27.6426V59.3574C93.2801 63.1807 90.1807 66.2801 86.3574 66.2803H20.6426C16.8193 66.2801 13.7199 63.1807 13.7197 59.3574V27.6426C13.7199 23.8193 16.8193 20.7199 20.6426 20.7197Z" fill="#14151E" stroke="#F7FFE7" stroke-width="5.43956"/>
<path d="M2.46548 29.4571C1.10383 24.3085 4.17376 19.0309 9.32234 17.6693L66.8101 2.46551C71.9587 1.10386 77.2363 4.17379 78.598 9.32238L86.8162 40.3969C88.1779 45.5455 85.1079 50.823 79.9593 52.1847L22.4716 67.3885C17.323 68.7501 12.0454 65.6802 10.6837 60.5316L2.46548 29.4571Z" fill="#14151E"/>
<path d="M78.5689 46.926L79.9596 52.1846L22.4713 67.3885L21.0805 62.1299L78.5689 46.926ZM81.5576 41.7879L73.3392 10.7128C72.7456 8.46883 70.4452 7.13074 68.2012 7.72408L10.7128 22.928C8.46882 23.5216 7.13072 25.822 7.72405 28.0661L15.9425 59.1411C16.5362 61.3851 18.8365 62.7232 21.0805 62.1299L22.4713 67.3885L21.9884 67.5031C17.1579 68.522 12.3253 65.7109 10.8229 61.0082L10.6838 60.5319L2.4654 29.4568C1.10396 24.3084 4.17374 19.0311 9.32208 17.6694L66.8104 2.46544L67.2933 2.35087C72.2848 1.29798 77.2787 4.33461 78.5979 9.32208L86.8163 40.3972L86.9309 40.88C87.9497 45.7105 85.1387 50.5432 80.436 52.0455L79.9596 52.1846L78.5689 46.926C80.8128 46.3324 82.1509 44.0319 81.5576 41.7879Z" fill="#F7FFE7"/>
<path d="M31.6006 60.5957L26.342 61.9865L15.0968 19.4669L20.3555 18.0762L31.6006 60.5957Z" fill="#F7FFE7"/>
<path d="M36.7479 25.3777L41.9688 45.1189L24.0554 49.8564L18.8345 30.1152L36.7479 25.3777ZM27.9233 43.207L35.3194 41.251L32.88 32.0271L25.4839 33.9831L27.9233 43.207Z" fill="#F7FFE7"/>
<path d="M54.6884 31.4352C55.2553 33.5785 53.9411 35.7851 51.7531 36.3638C49.5652 36.9424 47.332 35.674 46.7651 33.5307C46.1983 31.3874 47.5125 29.1808 49.7004 28.6022C51.8884 28.0235 54.1216 29.2919 54.6884 31.4352Z" fill="#F7FFE7"/>
<path d="M34.3422 75.738C34.5569 75.738 34.7156 75.7473 34.8182 75.766C34.9302 75.7753 35.0516 75.8173 35.1822 75.892C35.3222 75.9667 35.4202 76.0927 35.4762 76.27C35.5322 76.4473 35.5602 76.6853 35.5602 76.984C35.5602 77.2827 35.5322 77.5207 35.4762 77.698C35.4202 77.8753 35.3222 78.0013 35.1822 78.076C35.0422 78.1413 34.9162 78.1833 34.8042 78.202C34.7016 78.2113 34.5382 78.216 34.3142 78.216H30.0302V79.63H32.7882C33.0122 79.63 33.1756 79.6393 33.2782 79.658C33.3902 79.6673 33.5162 79.7093 33.6562 79.784C33.8989 79.924 34.0202 80.2927 34.0202 80.89C34.0202 81.5433 33.8429 81.9307 33.4882 82.052C33.3389 82.0987 33.1009 82.122 32.7742 82.122H30.0302V84.768C30.0302 84.992 30.0209 85.1553 30.0022 85.258C29.9929 85.3607 29.9509 85.482 29.8762 85.622C29.7456 85.874 29.3816 86 28.7842 86C28.1309 86 27.7482 85.8227 27.6362 85.468C27.5802 85.3187 27.5522 85.0807 27.5522 84.754V76.97C27.5522 76.494 27.6409 76.172 27.8182 76.004C27.9956 75.8267 28.3316 75.738 28.8262 75.738H34.3422ZM43.1023 76.116C43.1956 75.9667 43.331 75.864 43.5083 75.808C43.6856 75.752 43.905 75.724 44.1663 75.724C44.437 75.724 44.6516 75.7473 44.8103 75.794C44.969 75.8407 45.0903 75.8967 45.1743 75.962C45.2583 76.0273 45.319 76.1253 45.3563 76.256C45.4123 76.4147 45.4403 76.6573 45.4403 76.984V81.212C45.4403 82.444 45.0576 83.564 44.2923 84.572C43.919 85.048 43.4383 85.4353 42.8503 85.734C42.2623 86.0233 41.609 86.168 40.8903 86.168C40.181 86.168 39.5323 86.0187 38.9443 85.72C38.3656 85.4213 37.8943 85.0293 37.5303 84.544C36.7743 83.5547 36.3963 82.4347 36.3963 81.184V76.97C36.3963 76.746 36.401 76.5827 36.4103 76.48C36.429 76.368 36.4756 76.242 36.5503 76.102C36.625 75.962 36.751 75.864 36.9283 75.808C37.1056 75.752 37.3436 75.724 37.6423 75.724C37.941 75.724 38.179 75.752 38.3563 75.808C38.5336 75.864 38.655 75.962 38.7203 76.102C38.8323 76.3167 38.8883 76.6107 38.8883 76.984V81.184C38.8883 81.7533 39.0283 82.2947 39.3083 82.808C39.4483 83.0693 39.6583 83.2793 39.9383 83.438C40.2183 83.5967 40.5496 83.676 40.9323 83.676C41.6136 83.676 42.1223 83.424 42.4583 82.92C42.7943 82.416 42.9623 81.8327 42.9623 81.17V76.886C42.9623 76.522 43.009 76.2653 43.1023 76.116ZM47.1565 75.724H54.9405C55.2392 75.724 55.4585 75.7613 55.5985 75.836C55.7385 75.9013 55.8318 76.0087 55.8785 76.158C55.9252 76.3073 55.9485 76.5033 55.9485 76.746C55.9485 76.9887 55.9252 77.1847 55.8785 77.334C55.8318 77.474 55.7525 77.572 55.6405 77.628C55.4725 77.712 55.2345 77.754 54.9265 77.754H52.2525V84.796C52.2525 85.0107 52.2432 85.1693 52.2245 85.272C52.2152 85.3747 52.1732 85.496 52.0985 85.636C52.0332 85.7667 51.9118 85.86 51.7345 85.916C51.5572 85.972 51.3238 86 51.0345 86C50.7452 86 50.5118 85.972 50.3345 85.916C50.1665 85.86 50.0452 85.7667 49.9705 85.636C49.9052 85.496 49.8632 85.3747 49.8445 85.272C49.8352 85.16 49.8305 84.9967 49.8305 84.782V77.754H47.1425C46.8438 77.754 46.6245 77.7213 46.4845 77.656C46.3445 77.5813 46.2512 77.4693 46.2045 77.32C46.1578 77.1707 46.1345 76.9747 46.1345 76.732C46.1345 76.4893 46.1578 76.298 46.2045 76.158C46.2512 76.0087 46.3305 75.906 46.4425 75.85C46.6105 75.766 46.8485 75.724 47.1565 75.724ZM63.9627 80.498C64.5134 81.1513 64.7887 81.884 64.7887 82.696C64.7701 83.6293 64.4481 84.4133 63.8227 85.048C63.2067 85.6733 62.4554 85.986 61.5687 85.986H57.8867C57.2334 85.986 56.8507 85.8087 56.7387 85.454C56.6827 85.2953 56.6547 85.0527 56.6547 84.726V76.956C56.6547 76.732 56.6594 76.5687 56.6687 76.466C56.6874 76.3633 56.7341 76.242 56.8087 76.102C56.9394 75.85 57.3034 75.724 57.9007 75.724H61.4287C62.2874 75.724 63.0061 76.0227 63.5847 76.62C64.1914 77.2267 64.4947 77.9547 64.4947 78.804C64.4947 79.42 64.3174 79.9847 63.9627 80.498ZM62.3107 82.556C62.3107 82.332 62.2827 82.1547 62.2267 82.024C62.1801 81.8933 62.0961 81.8 61.9747 81.744C61.7881 81.6693 61.5267 81.632 61.1907 81.632C60.8547 81.632 60.6027 81.5667 60.4347 81.436C60.2667 81.3053 60.1827 81.0393 60.1827 80.638C60.1827 80.2273 60.2667 79.9567 60.4347 79.826C60.6121 79.6953 60.9014 79.63 61.3027 79.63C61.6761 79.63 61.9001 79.532 61.9747 79.336C62.0027 79.2333 62.0167 79.0653 62.0167 78.832C62.0167 78.5987 61.9374 78.4353 61.7787 78.342C61.6294 78.2487 61.4007 78.202 61.0927 78.202H59.1327V83.508H61.4287C62.0167 83.508 62.3107 83.1907 62.3107 82.556ZM70.4515 75.612C71.8328 75.612 73.0322 76.1113 74.0495 77.11C75.0668 78.1087 75.5755 79.35 75.5755 80.834C75.5755 82.3087 75.0902 83.5687 74.1195 84.614C73.1488 85.65 71.9542 86.168 70.5355 86.168C69.1168 86.168 67.9082 85.6547 66.9095 84.628C65.9202 83.6013 65.4255 82.3787 65.4255 80.96C65.4255 80.1853 65.5655 79.462 65.8455 78.79C66.1255 78.1087 66.4988 77.5393 66.9655 77.082C67.4322 76.6247 67.9688 76.2653 68.5755 76.004C69.1822 75.7427 69.8075 75.612 70.4515 75.612ZM67.9035 80.89C67.9035 81.7207 68.1695 82.3973 68.7015 82.92C69.2428 83.4333 69.8448 83.69 70.5075 83.69C71.1702 83.69 71.7675 83.438 72.2995 82.934C72.8315 82.43 73.0975 81.7533 73.0975 80.904C73.0975 80.0547 72.8268 79.3733 72.2855 78.86C71.7535 78.3467 71.1562 78.09 70.4935 78.09C69.8308 78.09 69.2335 78.3513 68.7015 78.874C68.1695 79.3873 67.9035 80.0593 67.9035 80.89ZM78.899 83.928H82.707C83.015 83.928 83.239 83.9653 83.379 84.04C83.519 84.1053 83.6123 84.2127 83.659 84.362C83.7056 84.5113 83.729 84.712 83.729 84.964C83.729 85.2067 83.7056 85.4027 83.659 85.552C83.6123 85.7013 83.533 85.804 83.421 85.86C83.2436 85.9533 83.001 86 82.693 86H77.653C76.9996 86 76.617 85.8227 76.505 85.468C76.449 85.3187 76.421 85.0807 76.421 84.754V76.97C76.421 76.7553 76.4256 76.5967 76.435 76.494C76.4536 76.382 76.5003 76.256 76.575 76.116C76.7056 75.864 77.0696 75.738 77.667 75.738C78.3203 75.738 78.7076 75.9107 78.829 76.256C78.8756 76.4147 78.899 76.6573 78.899 76.984V83.928ZM46.1599 89.13C46.2345 89.27 46.2765 89.396 46.2859 89.508C46.3045 89.62 46.3139 89.7833 46.3139 89.998V97.768C46.3139 98.412 46.1365 98.79 45.7819 98.902C45.6045 98.958 45.3805 98.986 45.1099 98.986C44.8392 98.986 44.6245 98.9627 44.4659 98.916C44.3072 98.8693 44.1859 98.8133 44.1019 98.748C44.0179 98.6827 43.9525 98.5893 43.9059 98.468C43.8592 98.3093 43.8359 98.0667 43.8359 97.74V93.05C43.6025 93.3393 43.2619 93.8013 42.8139 94.436C42.3659 95.0613 42.0812 95.4533 41.9599 95.612C41.8385 95.7707 41.7545 95.8827 41.7079 95.948C41.6612 96.004 41.5445 96.088 41.3579 96.2C41.1805 96.3027 40.9845 96.354 40.7699 96.354C40.5645 96.354 40.3732 96.3073 40.1959 96.214C40.0279 96.1113 39.9065 96.0133 39.8319 95.92L39.7199 95.766C39.5332 95.5327 39.1645 95.038 38.6139 94.282C38.0632 93.5167 37.7645 93.106 37.7179 93.05V97.768C37.7179 97.9827 37.7085 98.146 37.6899 98.258C37.6805 98.3607 37.6385 98.4773 37.5639 98.608C37.4239 98.86 37.0599 98.986 36.4719 98.986C35.9025 98.986 35.5479 98.86 35.4079 98.608C35.3332 98.4773 35.2865 98.356 35.2679 98.244C35.2585 98.132 35.2539 97.964 35.2539 97.74V89.97C35.2539 89.7553 35.2585 89.5967 35.2679 89.494C35.2865 89.382 35.3332 89.256 35.4079 89.116C35.5479 88.8733 35.9119 88.752 36.4999 88.752C36.7519 88.752 36.9665 88.7847 37.1439 88.85C37.3305 88.906 37.4519 88.9667 37.5079 89.032L37.5919 89.116L40.7699 93.288C42.3565 91.188 43.4159 89.802 43.9479 89.13C44.1065 88.878 44.4799 88.752 45.0679 88.752C45.6652 88.752 46.0292 88.878 46.1599 89.13ZM52.1815 88.612C53.5628 88.612 54.7622 89.1113 55.7795 90.11C56.7968 91.1087 57.3055 92.35 57.3055 93.834C57.3055 95.3087 56.8202 96.5687 55.8495 97.614C54.8788 98.65 53.6842 99.168 52.2655 99.168C50.8468 99.168 49.6382 98.6547 48.6395 97.628C47.6502 96.6013 47.1555 95.3787 47.1555 93.96C47.1555 93.1853 47.2955 92.462 47.5755 91.79C47.8555 91.1087 48.2288 90.5393 48.6955 90.082C49.1622 89.6247 49.6988 89.2653 50.3055 89.004C50.9122 88.7427 51.5375 88.612 52.1815 88.612ZM49.6335 93.89C49.6335 94.7207 49.8995 95.3973 50.4315 95.92C50.9728 96.4333 51.5748 96.69 52.2375 96.69C52.9002 96.69 53.4975 96.438 54.0295 95.934C54.5615 95.43 54.8275 94.7533 54.8275 93.904C54.8275 93.0547 54.5568 92.3733 54.0155 91.86C53.4835 91.3467 52.8862 91.09 52.2235 91.09C51.5608 91.09 50.9635 91.3513 50.4315 91.874C49.8995 92.3873 49.6335 93.0593 49.6335 93.89ZM59.397 88.724L61.987 88.738C63.3403 88.738 64.5303 89.228 65.557 90.208C66.5836 91.1787 67.097 92.378 67.097 93.806C67.097 95.2247 66.593 96.4427 65.585 97.46C64.5863 98.4773 63.373 98.986 61.945 98.986H59.383C58.8136 98.986 58.459 98.8693 58.319 98.636C58.207 98.44 58.151 98.1413 58.151 97.74V89.956C58.151 89.732 58.1556 89.5687 58.165 89.466C58.1836 89.3633 58.2303 89.242 58.305 89.102C58.4356 88.85 58.7996 88.724 59.397 88.724ZM61.987 96.508C62.659 96.508 63.2656 96.2607 63.807 95.766C64.3483 95.262 64.619 94.632 64.619 93.876C64.619 93.12 64.353 92.49 63.821 91.986C63.2983 91.4727 62.6823 91.216 61.973 91.216H60.629V96.508H61.987ZM70.4164 96.522H74.7284C74.9431 96.522 75.1017 96.5313 75.2044 96.55C75.3164 96.5593 75.4424 96.6013 75.5824 96.676C75.8344 96.8067 75.9604 97.1707 75.9604 97.768C75.9604 98.4213 75.7877 98.804 75.4424 98.916C75.2837 98.972 75.0411 99 74.7144 99H69.1704C68.5171 99 68.1344 98.8227 68.0224 98.468C67.9664 98.3187 67.9384 98.0807 67.9384 97.754V89.97C67.9384 89.494 68.0271 89.172 68.2044 89.004C68.3817 88.8267 68.7177 88.738 69.2124 88.738H74.7284C74.9431 88.738 75.1017 88.7473 75.2044 88.766C75.3164 88.7753 75.4424 88.8173 75.5824 88.892C75.8344 89.0227 75.9604 89.3867 75.9604 89.984C75.9604 90.6373 75.7877 91.02 75.4424 91.132C75.2837 91.188 75.0411 91.216 74.7144 91.216H70.4164V92.63H73.1884C73.4031 92.63 73.5617 92.6393 73.6644 92.658C73.7764 92.6673 73.9024 92.7093 74.0424 92.784C74.2944 92.9147 74.4204 93.2787 74.4204 93.876C74.4204 94.5293 74.2431 94.912 73.8884 95.024C73.7297 95.08 73.4871 95.108 73.1604 95.108H70.4164V96.522Z" fill="#F7FFE7"/>
</svg>
