<svg width="80" height="80" viewBox="0 0 80 80" fill="none" xmlns="http://www.w3.org/2000/svg">
<rect x="9" y="9" width="62" height="62" rx="31" stroke="#A2F93E" stroke-width="2" stroke-linecap="square" stroke-linejoin="round" stroke-dasharray="4 8 12 16"/>
<path d="M50.2282 46.5969H47.4599C47.2245 46.5969 47.0511 46.5473 46.9397 46.4482C46.8406 46.3368 46.791 46.1634 46.791 45.928V33.8886C46.791 33.6532 46.8406 33.486 46.9397 33.3869C47.0511 33.2755 47.2245 33.2197 47.4599 33.2197H50.4511C50.6493 33.2197 50.8103 33.2631 50.9342 33.3498C51.0705 33.4365 51.1943 33.5789 51.3058 33.7771L52.9779 36.8055C53.0399 36.917 53.0894 36.9975 53.1266 37.0471C53.1761 37.0966 53.238 37.1214 53.3124 37.1214H53.4796C53.5539 37.1214 53.6096 37.0966 53.6468 37.0471C53.6963 36.9975 53.7521 36.917 53.814 36.8055L55.4676 33.7771C55.579 33.5789 55.6967 33.4365 55.8206 33.3498C55.9568 33.2631 56.124 33.2197 56.3222 33.2197H59.3321C59.5674 33.2197 59.7346 33.2755 59.8337 33.3869C59.9452 33.486 60.0009 33.6532 60.0009 33.8886V45.928C60.0009 46.1634 59.9452 46.3368 59.8337 46.4482C59.7346 46.5473 59.5674 46.5969 59.3321 46.5969H56.4708C56.2355 46.5969 56.0621 46.5473 55.9506 46.4482C55.8515 46.3368 55.802 46.1634 55.802 45.928V39.3881L54.7058 41.4132C54.5943 41.6238 54.4581 41.7786 54.2971 41.8777C54.1484 41.9644 53.9564 42.0078 53.7211 42.0078H52.9779C52.7426 42.0078 52.5444 41.9644 52.3834 41.8777C52.2348 41.7786 52.1047 41.6238 51.9932 41.4132L50.897 39.3881V45.928C50.897 46.1634 50.8413 46.3368 50.7298 46.4482C50.6307 46.5473 50.4635 46.5969 50.2282 46.5969Z" fill="#C7FF86"/>
<path d="M44.4399 43.1775C44.4399 43.7473 44.3593 44.2675 44.1983 44.7382C44.0373 45.1965 43.7462 45.5929 43.3251 45.9273C42.904 46.2493 42.3218 46.5032 41.5786 46.689C40.8479 46.8748 39.9127 46.9677 38.7732 46.9677C37.6336 46.9677 36.6923 46.8748 35.9491 46.689C35.2183 46.5032 34.6424 46.2493 34.2212 45.9273C33.8001 45.5929 33.5028 45.1965 33.3294 44.7382C33.1684 44.2675 33.0879 43.7473 33.0879 43.1775V36.842C33.0879 36.2722 33.1684 35.7582 33.3294 35.2999C33.5028 34.8292 33.8001 34.4267 34.2212 34.0922C34.6424 33.7578 35.2183 33.4977 35.9491 33.3119C36.6923 33.1261 37.6336 33.0332 38.7732 33.0332C39.9127 33.0332 40.8479 33.1261 41.5786 33.3119C42.3218 33.4977 42.904 33.7578 43.3251 34.0922C43.7462 34.4267 44.0373 34.8292 44.1983 35.2999C44.3593 35.7582 44.4399 36.2722 44.4399 36.842V43.1775ZM37.2868 42.5087C37.2868 42.7564 37.3735 42.967 37.5469 43.1404C37.7327 43.3014 38.1415 43.3819 38.7732 43.3819C39.4049 43.3819 39.8074 43.3014 39.9808 43.1404C40.1666 42.967 40.2595 42.7564 40.2595 42.5087V37.5108C40.2595 37.2755 40.1666 37.0773 39.9808 36.9163C39.8074 36.7429 39.4049 36.6562 38.7732 36.6562C38.1415 36.6562 37.7327 36.7429 37.5469 36.9163C37.3735 37.0773 37.2868 37.2755 37.2868 37.5108V42.5087Z" fill="#A2F93E"/>
<path d="M26.3541 46.689H22.0809C21.8455 46.689 21.6721 46.6395 21.5607 46.5404C21.4616 46.4289 21.412 46.2555 21.412 46.0202V43.8278C21.412 43.5925 21.4616 43.4253 21.5607 43.3262C21.6721 43.2147 21.8455 43.159 22.0809 43.159H25.5552C26.0135 43.159 26.3232 43.0908 26.4842 42.9546C26.6452 42.806 26.7257 42.5025 26.7257 42.0442V41.6355C26.4284 41.7222 26.0816 41.7903 25.6853 41.8398C25.3013 41.8894 24.8616 41.9141 24.3661 41.9141C22.694 41.9141 21.5483 41.6355 20.929 41.0781C20.3097 40.5083 20 39.6722 20 38.5699V36.7862C20 36.2165 20.0743 35.7024 20.223 35.2441C20.384 34.7859 20.6627 34.3957 21.059 34.0736C21.4678 33.7392 22.019 33.4853 22.7126 33.3119C23.4062 33.1261 24.2856 33.0332 25.3508 33.0332C26.4904 33.0332 27.4193 33.1261 28.1377 33.3119C28.8685 33.4853 29.4383 33.7392 29.847 34.0736C30.2558 34.3957 30.5345 34.7859 30.6831 35.2441C30.8441 35.7024 30.9246 36.2165 30.9246 36.7862V42.8803C30.9246 44.0074 30.5964 44.924 29.9399 45.63C29.2959 46.336 28.1006 46.689 26.3541 46.689ZM26.7257 38.1797V37.0835C26.7257 36.8853 26.6514 36.7243 26.5028 36.6004C26.3541 36.4642 26.0135 36.3961 25.4809 36.3961C24.9235 36.3961 24.5705 36.4642 24.4219 36.6004C24.2732 36.7243 24.1989 36.8853 24.1989 37.0835V38.1797C24.1989 38.3655 24.2732 38.5265 24.4219 38.6628C24.5705 38.7866 24.9235 38.8485 25.4809 38.8485C26.0135 38.8485 26.3541 38.7866 26.5028 38.6628C26.6514 38.5265 26.7257 38.3655 26.7257 38.1797Z" fill="#A2F93E"/>
</svg>
